<svg xmlns="http://www.w3.org/2000/svg" viewBox="0 0 21.99 19"><defs><style>.cls-1{fill:#FF0000;}</style></defs><g id="Calque_2" data-name="Calque 2"><g id="icones_logo" data-name="icones/logo"><g id="erreur"><path class="cls-1" d="M21.55,14.3,13.88,1.58a3.43,3.43,0,0,0-5.78,0L.43,14.3a3,3,0,0,0,0,3A3.34,3.34,0,0,0,3.32,19H18.66a3.36,3.36,0,0,0,2.94-1.66A3,3,0,0,0,21.55,14.3Zm-1.7,2.05a1.33,1.33,0,0,1-1.19.65H3.32a1.31,1.31,0,0,1-1.19-.65,1,1,0,0,1,0-1L9.81,2.62a1.47,1.47,0,0,1,2.07-.28,1.28,1.28,0,0,1,.29.28l7.67,12.72A1,1,0,0,1,19.85,16.35Z"/><circle class="cls-1" cx="10.99" cy="14" r="1"/><path class="cls-1" d="M11,6a1,1,0,0,0-1,1v4a1,1,0,0,0,2,0V7A1,1,0,0,0,11,6Z"/></g></g></g></svg>