<svg xmlns="http://www.w3.org/2000/svg" viewBox="0 0 124 83.04"><defs><style>.cls-1{fill:#005a9c;}.cls-2{fill:#efab48;}</style></defs><g id="Calque_2" data-name="Calque 2"><g id="icones"><g id="logo"><polygon class="cls-1" points="6.05 0.7 9.65 5.62 15.84 3.59 12.28 8.85 15.84 14.24 9.91 12.28 6.05 17.33 6.05 11.08 0 8.82 5.96 6.69 6.05 0.7"/><polygon class="cls-2" points="56.79 0 51.27 6.05 59.92 7.92 56.79 0"/><polygon class="cls-2" points="72.83 6.65 65.54 9.98 72.83 15.17 72.83 6.65"/><polygon class="cls-2" points="77.29 19.3 85.54 19.3 82.21 26.68 77.29 19.3"/><path class="cls-1" d="M44.82,6.65C7.92,25,9.68,67.87,44.82,83-.83,80.78-10.55,12.78,44.82,6.65Z"/><path class="cls-2" d="M59.26,49.74l-.74,0c.68,0,4.51-.43,4.36-4.58-.2-5.59-5.87-4.66-5.87-4.66l-5.87-.06V58.86h4V51.14h2.33a1.52,1.52,0,0,1,1.46,1.66v6.06h4l-.4-6.43S62.45,50,59.26,49.74Zm-1.83-1.13H55V43.32h2.43C59.63,44.21,59.09,47.64,57.43,48.61Z"/><polygon class="cls-2" points="69.27 55.96 69.27 50.79 74.72 50.79 74.72 47.89 69.27 47.89 69.27 43.32 75.34 43.32 75.34 40.4 69.27 40.4 65.04 40.4 65.04 43.32 65.04 47.89 65.04 50.79 65.04 55.96 65.04 58.86 69.27 58.86 75.38 58.86 75.38 55.96 69.27 55.96"/><polygon class="cls-2" points="81.86 55.67 81.86 40.4 78.04 40.4 78.04 55.67 78.04 58.86 81.86 58.86 87.67 58.86 87.67 55.67 81.86 55.67"/><path class="cls-2" d="M99.2,40.4H93.92l-5,18.46h3.9l.89-4.16,5.41-.05.93,4.21h4.21ZM94.32,52s1.91-7.85,1.91-8l2.17,8Z"/><rect class="cls-2" x="105.81" y="40.4" width="3.82" height="18.46"/><path class="cls-2" d="M123.8,45.58c0-3-.66-5.58-5.56-5.46-3.66.09-6.07,1.44-6.08,5.16.14,2.58,1.69,4.22,4.09,5.29s3.66,2.4,3.86,3.79c0,2.9-4.39,2.8-4.39,0V53.27h-3.86v2.16c0,4.59,11.94,5.29,11.94.2V52.27c-.67-2.26-2.46-3.64-5.06-4.39a4,4,0,0,1-2.82-3.2c0-2.29,4-2.33,4,0v1Z"/><path class="cls-1" d="M55.64,61.11h-4.5V74.39h2.64l-.07-5.54h2c1.83,0,2.47-1.5,2.48-3.77C58.15,63,57.8,61.19,55.64,61.11ZM55.06,67H53.47V63h1.59C56.46,63.5,56.26,66.61,55.06,67Z"/><path class="cls-1" d="M62.52,60.73A3.48,3.48,0,0,0,59,64.21v7a3.49,3.49,0,0,0,7,0v-7A3.48,3.48,0,0,0,62.52,60.73Zm1.57,9.52c0,1.39-.7,2.51-1.57,2.51s-1.58-1.12-1.58-2.51V65.19c0-1.38.71-2.51,1.58-2.51s1.57,1.13,1.57,2.51Z"/><path class="cls-1" d="M72.16,60.73V71.27c0,1.17-.46,1.49-1.24,1.49-1.17,0-1.4-.41-1.4-1.49V60.89H67.11V71.27c.07,1.79,1,3.1,3.75,3.44,2.25.16,3.35-1.25,3.88-3.44V60.73Z"/><path class="cls-1" d="M81.15,67.64l-.43,0c.4,0,2.69-.32,2.6-3.4-.12-4.14-3.5-3.45-3.5-3.45l-3.51,0V74.39h2.36V68.68h1.39s.88,0,.88,1.23v4.48h2.38l-.24-4.75A2.05,2.05,0,0,0,81.15,67.64Zm-1.09-.83H78.61V62.89h1.45C81.38,63.55,81.06,66.09,80.06,66.81Z"/><polygon class="cls-1" points="90.09 72.07 90.09 60.92 87.67 60.92 87.67 72.07 87.67 74.39 90.09 74.39 93.79 74.39 93.79 72.07 90.09 72.07"/><path class="cls-1" d="M100.57,60.92H97.36L94.29,74.39h2.37l.54-3,3.29,0,.56,3.07h2.56Zm-3,8.46s1.15-5.73,1.15-5.83l1.32,5.83Z"/><rect class="cls-1" x="113.8" y="60.92" width="2.79" height="13.47"/><polygon class="cls-1" points="120.22 72.28 120.22 68.51 123.59 68.51 123.59 66.39 120.22 66.39 120.22 63.05 123.98 63.05 123.98 60.92 120.22 60.92 117.61 60.92 117.61 63.05 117.61 66.39 117.61 68.51 117.61 72.28 117.61 74.39 120.22 74.39 124 74.39 124 72.28 120.22 72.28"/><polygon class="cls-1" points="104.68 61.06 107.48 61.06 109.09 70.4 110.89 61.06 113.49 61.06 110.65 74.39 107.41 74.39 104.68 61.06"/></g></g></g></svg>